HIERARCHY
ROOT Hips
{
	OFFSET	0.00	0.00	0.00
	CHANNELS 6 Xposition Yposition Zposition Zrotation Xrotation Yrotation
	JOINT LeftUpLeg
	{
		OFFSET	 0.126116	-0.014019	-0.065224
		CHANNELS 3 Zrotation Xrotation Yrotation
		JOINT LeftLeg
		{
			OFFSET	 0.000000	 0.000000	 0.569914
			CHANNELS 3 Zrotation Xrotation Yrotation
			JOINT LeftFoot
			{
				OFFSET	 0.000000	 0.000000	 0.544423
				CHANNELS 3 Zrotation Xrotation Yrotation
				JOINT LeftToeBase
				{
					OFFSET	 0.000000	 0.000000	 0.207117
					CHANNELS 3 Zrotation Xrotation Yrotation
					End Site
					{
						OFFSET	 0.000000	 0.000000	 0.207117
					}
				}
			}
		}
	}
	JOINT RightUpLeg
	{
		OFFSET	-0.124023	-0.008373	-0.065224
		CHANNELS 3 Zrotation Xrotation Yrotation
		JOINT RightLeg
		{
			OFFSET	 0.000000	 0.000000	 0.570047
			CHANNELS 3 Zrotation Xrotation Yrotation
			JOINT RightFoot
			{
				OFFSET	 0.000000	 0.000000	 0.544354
				CHANNELS 3 Zrotation Xrotation Yrotation
				JOINT RightToeBase
				{
					OFFSET	 0.000000	 0.000000	 0.207540
					CHANNELS 3 Zrotation Xrotation Yrotation
					End Site
					{
						OFFSET	 0.000000	 0.000000	 0.207540
					}
				}
			}
		}
	}
	JOINT Spine
	{
		OFFSET	 0.000184	-0.007763	 0.117403
		CHANNELS 3 Zrotation Xrotation Yrotation
		JOINT Spine1
		{
			OFFSET	 0.000000	 0.000000	 0.137269
			CHANNELS 3 Zrotation Xrotation Yrotation
			JOINT Spine2
			{
				OFFSET	 0.000000	 0.000000	 0.156879
				CHANNELS 3 Zrotation Xrotation Yrotation
				JOINT LeftShoulder
				{
					OFFSET	 0.080501	-0.002496	 0.160144
					CHANNELS 3 Zrotation Xrotation Yrotation
					JOINT LeftArm
					{
						OFFSET	 0.000000	 0.000000	 0.164363
						CHANNELS 3 Zrotation Xrotation Yrotation
						JOINT LeftForeArm
						{
							OFFSET	 0.000000	 0.000000	 0.364576
							CHANNELS 3 Zrotation Xrotation Yrotation
							JOINT LeftHand
							{
								OFFSET	 0.000000	 0.000000	 0.360812
								CHANNELS 3 Zrotation Xrotation Yrotation
								JOINT LeftHandIndex1
								{
									OFFSET	 0.000000	 0.000000	 0.086006
									CHANNELS 3 Zrotation Xrotation Yrotation
									JOINT LeftHandIndex2
									{
										OFFSET	 0.000000	 0.000000	 0.047236
										CHANNELS 3 Zrotation Xrotation Yrotation
										JOINT LeftHandIndex3
										{
											OFFSET	-0.004284	-0.000551	 0.038166
											CHANNELS 3 Zrotation Xrotation Yrotation
											End Site
											{
												OFFSET	-0.004284	-0.000551	 0.038166
											}
										}
									}
								}
							}
						}
					}
				}
				JOINT Neck
				{
					OFFSET	 0.000000	 0.000000	 0.176489
					CHANNELS 3 Zrotation Xrotation Yrotation
					JOINT Head
					{
						OFFSET	 0.000000	-0.001747	 0.077940
						CHANNELS 3 Zrotation Xrotation Yrotation
						End Site
						{
							OFFSET	 0.000000	-0.001747	 0.077940
						}
					}
				}
				JOINT RightShoulder
				{
					OFFSET	-0.080363	 0.000306	 0.159706
					CHANNELS 3 Zrotation Xrotation Yrotation
					JOINT RightArm
					{
						OFFSET	 0.000000	 0.000000	 0.164196
						CHANNELS 3 Zrotation Xrotation Yrotation
						JOINT RightForeArm
						{
							OFFSET	 0.000000	 0.000000	 0.365611
							CHANNELS 3 Zrotation Xrotation Yrotation
							JOINT RightHand
							{
								OFFSET	 0.000000	 0.000000	 0.360648
								CHANNELS 3 Zrotation Xrotation Yrotation
								JOINT RightHandIndex1
								{
									OFFSET	 0.000000	 0.000000	 0.069977
									CHANNELS 3 Zrotation Xrotation Yrotation
									JOINT RightHandIndex2
									{
										OFFSET	 0.000000	 0.000000	 0.052305
										CHANNELS 3 Zrotation Xrotation Yrotation
										JOINT RightHandIndex3
										{
											OFFSET	 0.009002	-0.000782	 0.042196
											CHANNELS 3 Zrotation Xrotation Yrotation
											End Site
											{
												OFFSET	 0.009002	-0.000782	 0.042196
											}
										}
									}
								}
							}
						}
					}
				}
			}
		}
	}
}
MOTION
Frames:    6
Frame Time: 0.03333334
-0.000576	 0.020252	 1.263569	 0.003124	 0.003642	-0.141975	 15.730020	-5.151990	 175.678500	 1.408460	-16.292430	-0.963429	-12.131290	 71.881320	 6.524202	-2.385833	 28.452760	 0.000004	-15.815260	-5.857998	-175.500800	-1.381624	-17.120200	 0.996681	 11.939860	 72.233750	-6.470408	 2.384658	 28.388730	 0.000004	-3.084296	 2.741304	-0.061692	 1.664686	 3.641655	 0.664221	-5.006052	-4.530829	-1.096065	-91.776270	 78.527470	-179.999900	 46.038870	 33.444560	-61.230290	-11.776330	 0.324255	-2.336102	-29.643220	 0.510949	-4.347236	-2.635965	 4.993658	 6.788941	-5.165319	 0.784187	 3.516649	-5.225038	 0.466231	 0.424329	-0.000002	-3.783157	-0.089647	-4.859797	 4.822809	 0.204762	 89.782130	 78.203900	 180.000000	-61.792690	 40.951160	 58.609250	 11.338250	 0.352975	 2.364201	 28.874850	-0.492978	 8.799836	 6.112037	 4.509576	-0.364401	 4.968462	 1.518543	-9.347576	 5.168945	 0.703820	 2.021906
-0.000579	 0.020682	 1.257274	 0.003126	 0.003649	-0.141978	 17.135210	-7.303061	 175.732100	 1.325232	-20.424240	-1.227502	-13.967400	 73.797940	 8.451221	-2.385833	 28.452760	 0.000004	-17.220040	-7.937139	-175.553200	-1.299261	-21.092930	 1.248133	 13.691650	 74.082510	-8.304441	 2.384658	 28.388730	 0.000004	-8.757839	 2.741313	-0.061689	 1.664682	 3.641628	 0.664221	-5.006050	-4.530820	-1.096063	-91.776180	 78.527450	 180.000000	 45.827140	 33.251780	-60.813240	-15.057760	 0.669042	-4.048745	-29.921490	 0.590222	-4.344093	-2.635965	 4.993658	 6.788941	-5.165319	 0.784187	 3.516649	-5.225038	 0.466231	 0.424329	-0.000002	-3.783157	-0.089647	-4.859797	 4.822809	 0.204762	 89.782050	 78.203900	-180.000000	-61.170950	 40.225820	 60.415710	 13.877820	 0.693677	 4.078981	 29.311110	-0.937191	 8.490971	 6.112037	 4.509576	-0.364401	 4.968462	 1.518543	-9.347576	 5.168945	 0.703820	 2.021906
-0.000585	 0.021271	 1.248824	 0.003128	 0.003645	-0.141973	 19.056440	-9.687106	 175.763400	 1.207779	-24.925230	-1.531960	-16.485910	 75.833050	 11.067240	-2.385833	 28.452760	 0.000004	-19.139300	-10.272170	-175.588200	-1.183017	-25.478720	 1.541983	 16.117870	 76.076620	-10.819220	 2.384658	 28.388730	 0.000004	-16.150920	 2.741298	-0.061694	 1.664684	 3.641652	 0.664212	-5.006053	-4.530827	-1.096059	-91.776200	 78.527470	-180.000000	 45.506870	 32.961020	-60.173180	-19.514830	 1.461429	-6.333045	-30.311870	 0.701272	-4.338616	-2.635965	 4.993658	 6.788941	-5.165319	 0.784187	 3.516649	-5.225038	 0.466231	 0.424329	-0.000002	-3.783157	-0.089647	-4.859801	 4.822807	 0.204762	 89.782040	 78.203900	-180.000000	-57.823980	 38.097710	 57.209530	 16.179690	 8.107802	 16.859200	 29.955380	-1.624100	 8.037241	 6.112037	 4.509576	-0.364401	 4.968462	 1.518543	-9.347576	 5.168945	 0.703820	 2.021906
-0.000590	 0.021823	 1.241111	 0.003122	 0.003644	-0.141969	 20.830860	-11.574500	 175.770500	 1.094242	-28.429800	-1.784714	-18.957040	 77.373820	 13.612410	-2.385833	 28.452760	 0.000004	-20.912010	-12.134160	-175.601200	-1.070619	-28.918570	 1.787772	 18.514920	 77.601040	-13.283260	 2.384658	 28.388730	 0.000004	-22.207360	 2.741296	-0.061698	 1.664685	 3.641652	 0.664257	-5.006057	-4.530817	-1.096082	-91.776140	 78.527430	 180.000000	 45.192500	 32.669260	-59.534490	-23.491030	 2.485191	-8.301561	-30.680310	 0.805703	-4.332187	-2.635965	 4.993658	 6.788941	-5.165319	 0.784187	 3.516649	-5.225038	 0.466231	 0.424329	-0.000002	-3.783157	-0.089647	-4.859798	 4.822809	 0.204762	 89.782040	 78.203890	-180.000000	-55.418650	 36.405300	 60.397660	 17.831520	 11.071290	 20.968250	 30.091770	-2.416574	 7.346930	 6.112037	 4.509576	-0.364401	 4.968462	 1.518543	-9.347576	 5.168945	 0.703820	 2.021906
-0.000596	 0.022429	 1.232456	 0.003127	 0.003647	-0.141975	 22.795530	-13.444630	 175.765000	 0.961905	-31.850750	-2.048164	-21.962490	 78.833830	 16.687640	-2.385833	 28.452760	 0.000004	-22.875390	-13.986490	-175.603800	-0.939570	-32.290090	 2.045069	 21.448810	 79.055110	-16.279790	 2.384658	 28.388730	 0.000004	-27.598510	 2.741293	-0.061691	 1.664685	 3.641651	 0.664204	-5.006053	-4.530824	-1.096056	-91.776160	 78.527430	 180.000000	 44.815320	 32.310840	-58.751600	-27.729650	 3.870701	-10.250640	-30.989710	 0.936005	-4.306105	-2.635965	 4.993658	 6.788941	-5.165319	 0.784187	 3.516649	-5.225038	 0.466231	 0.424329	-0.000002	-3.783157	-0.089647	-4.859797	 4.822809	 0.204762	 89.782060	 78.203900	-180.000000	-52.073360	 34.150890	 65.020520	 18.323410	 14.070190	 24.893590	 29.403120	-3.538280	 5.952275	 6.112037	 4.509576	-0.364401	 4.968462	 1.518543	-9.347576	 5.168945	 0.703820	 2.021906
-0.000601	 0.023045	 1.223362	 0.003124	 0.003642	-0.141975	 24.815380	-15.200100	 175.751000	 0.817642	-35.015110	-2.309894	-25.454640	 80.137500	 20.241230	-2.385833	 28.452760	 0.000004	-24.894760	-15.729790	-175.599300	-0.796688	-35.417340	 2.301468	 24.882920	 80.360590	-19.768480	 2.384658	 28.388730	 0.000004	-31.270360	 2.741304	-0.061692	 1.664686	 3.641648	 0.664211	-5.006052	-4.530827	-1.096059	-91.776250	 78.527430	-180.000000	 44.420810	 31.924080	-57.911340	-31.612820	 5.454487	-11.945390	-31.382110	 1.062296	-4.288674	-2.635965	 4.993658	 6.788941	-5.165319	 0.784187	 3.516649	-5.225038	 0.466231	 0.424329	-0.000002	-3.783157	-0.089647	-4.859798	 4.822809	 0.204762	 89.782090	 78.203870	 180.000000	-48.344610	 31.746510	 71.356830	 18.556830	 15.401420	 26.144960	 28.216940	-4.481934	 4.315388	 6.112037	 4.509576	-0.364401	 4.968462	 1.518543	-9.347576	 5.168945	 0.703820	 2.021906
